<?xml version="1.0" encoding="utf-8"?>
<!-- Generator: Adobe Illustrator 24.0.2, SVG Export Plug-In . SVG Version: 6.00 Build 0)  -->
<svg version="1.1" id="Capa_1" xmlns="http://www.w3.org/2000/svg" xmlns:xlink="http://www.w3.org/1999/xlink" x="0px" y="0px"
	 viewBox="0 0 922.1 457" style="enable-background:new 0 0 922.1 457;" xml:space="preserve">
<style type="text/css">
	.st0{fill:#009DE0;}
	.st1{fill:#FFFFFF;}
	.st2{fill:#333333;}
	.st3{fill:#FEFEFE;}
</style>
<g>
	<g>
		<g>
			<path class="st0" d="M268.1,82.1c21.3,0.2,42,3.2,61.3,12.9c5.9,3,11.2,6.8,15.7,11.7c8.5,9.2,9.1,20.8,1.4,30.7
				c-4.6,5.9-10.5,10-17.1,13.3c-21.1,10.6-43.7,13.6-66.9,12.9c-20-0.6-39.4-4.1-57.3-13.6c-4.2-2.2-8-4.9-11.5-8.1
				c-12.6-11.3-12.6-26.6,0-37.9C205,93.9,218.8,89,233.2,85.8C244.7,83.2,256.3,82,268.1,82.1z"/>
			<path class="st0" d="M351.9,235.4c0,6.6,0.5,12.7-0.1,18.8c-0.8,8.3-6.2,14.2-12.6,19.1c-11.5,8.7-24.8,13.2-38.7,15.9
				c-28.5,5.5-56.7,4.4-84.2-5.6c-8.9-3.2-17.1-7.7-23.9-14.5c-5.5-5.5-8.3-12.1-8.3-19.9c0.1-4.4,0-8.8,0-13.9
				c24.5,20.3,53.4,25.9,83.6,25.9C298,261.2,326.9,255.9,351.9,235.4z"/>
			<path class="st0" d="M184.3,149.7c37.7,34.4,129.8,34.6,167,0.5c1.5,19.7,2.4,28.4-17.9,41c-13.7,8.6-29.1,12.2-44.9,14.1
				c-24.4,2.9-48.4,1.2-71.6-7.2c-8.5-3.1-16.4-7.2-23.2-13.4c-6.3-5.8-10.1-12.6-9.5-21.4C184.6,159,184.3,154.7,184.3,149.7z"/>
			<path class="st0" d="M184.1,192.3c37,34.3,130,35,167.7,0.4c0,6.5,0.5,12.8-0.1,18.9c-0.8,7-5,12.3-10.3,16.7
				c-11,9.3-24,14.1-37.8,17c-29.9,6.4-59.5,5.5-88.4-5.3c-8.8-3.3-16.8-7.8-23.4-14.6c-4.8-4.9-7.5-10.7-7.7-17.6
				C184,203,184.1,198,184.1,192.3z"/>
			<path class="st1" d="M268.3,95c2.7,0.4,6.3-0.9,5.6,4c-0.2,1.3,1.2,1.2,2.2,1.3c3,0.4,5.9,0.9,8.9,1.2c2.5,0.3,3.6,1.2,2.4,3.8
				c-0.4,0.9-0.8,1.9-0.9,2.8c-0.4,2.6-1.8,3.1-4.2,2.4c-4.3-1.3-8.6-1.9-13.1-1.5c-2.1,0.2-4.8,0.3-5.2,2.8
				c-0.3,2.4,2.2,2.9,4.1,3.6c5.1,1.7,10.4,2.9,15.2,5.5c4.3,2.3,8.2,5,7.8,10.6c-0.3,5.7-4.3,8.4-9,10.2c-1.6,0.6-3.2,1.3-4.9,1.4
				c-2.6,0.2-4,1-3.5,3.9c0.3,1.6-0.4,2.3-2.1,2.2c-2.1-0.1-4.3-0.1-6.4-0.2c-1,0-1.9-0.3-1.7-1.3c0.6-3.7-1.8-3.6-4.3-3.9
				c-3.4-0.5-6.6-1.5-10-2.3c-2.1-0.5-2.9-1.5-1.8-3.5c0.3-0.6,0.6-1.3,0.8-2c0.7-3.4,2.4-4.5,6-3.2c4.6,1.6,9.4,2.2,14.3,1.8
				c2.3-0.2,5.2-0.4,5.6-2.9c0.5-2.9-2.6-3.3-4.7-3.9c-4.1-1.2-8.3-2-12.3-3.5c-5-1.9-9.9-4.3-10.3-10.7c-0.3-4.6,4-9.2,10.6-11.5
				c3-1.1,6.8-0.8,6.3-6.1C263.6,94,266.9,95.6,268.3,95z"/>
		</g>
	</g>
	<g>
		<path class="st2" d="M277,278.2c8.2-4.7,15.7-9,23.2-13.3c15.7-8.9,31.2-18,47-26.8c8.8-4.8,18.3-7.9,28.5-8
			c14.4-0.1,25.4,7.9,29.2,21c3.9,13.6-1.2,27.4-13.1,34.7c-38,23.5-76,46.9-114.1,70.3c-13.9,8.5-28.7,10.7-44.5,6.5
			c-27.5-7.4-55.1-14.5-82.5-22.2c-5.3-1.5-8.5,1-12.2,3.1c-1.7,1-0.1,1.9,0.3,2.7c2.3,4.3,4.9,8.4,4.8,13.5
			c-0.1,6.9-2.8,12.5-8.6,16.1c-7,4.3-14.1,8.4-21.4,12.1c-9.6,4.9-20,1.4-25.5-8.4c-13.7-24.1-27.4-48.2-41-72.4
			c-5-8.8-10-17.5-14.9-26.3c-6.2-11-3.2-21.7,7.8-28c5.8-3.4,11.7-6.7,17.5-9.9c10.2-5.7,21.1-2.6,27,7.4c1.3,2.2,2.3,5.8,4.2,6.3
			c1.8,0.5,4.5-2.1,6.7-3.4c16.8-9.5,33.1-19.7,50.2-28.6c15-7.8,30.2-9.2,46.4-3.3c21.5,7.9,43.2,15,65.5,20.2
			c14.2,3.3,23.1,18.2,20.2,32.5C277.6,275.1,277.4,276.2,277,278.2z"/>
		<path class="st3" d="M262.8,298.7c10.4,0.2,19.8-2.9,28.7-8.1c19.7-11.4,39.4-22.8,59.1-34.1c7-4,14.4-7.3,22.6-8.3
			c10.9-1.4,17.7,6.5,14.2,16.5c-0.9,2.4-2.3,4.3-4.6,5.7c-38.2,23.5-76.3,46.9-114.4,70.4c-11.2,6.9-22.8,6.8-35.2,3.3
			c-27.5-7.7-55.3-14.7-82.8-22.4c-5.9-1.7-10.3-0.2-15,2.7c-6.6,4-6.7,3.9-10.4-2.7c-8.7-15.4-17.4-30.7-26.1-46.1
			c-0.7-1.2-2.2-2.4,0.3-3.8c18.5-10.4,36.6-21.7,55.4-31.6c10.2-5.3,20.6-6,31.7-2c21.7,7.9,43.6,15.4,66.2,20.4
			c5.8,1.3,8.9,6.8,7.7,12.6c-1.2,5.6-6.1,8.8-12.2,7.6c-11.6-2.3-22.9-5.7-34.3-8.7c-3.7-1-7.4-2.1-11.2-3
			c-4.7-1.2-9.3,1.3-10.8,5.7c-1.6,4.6,0.6,9.8,5.4,11.2c20.1,5.7,40,12,60.8,14.7C259.5,298.9,261.2,298.7,262.8,298.7z"/>
		<path class="st3" d="M105.4,372c-1.7-0.4-2-1.9-2.6-3C92.9,351.4,83,333.9,73,316.4c-8.2-14.5-16.4-29-24.7-43.5
			c-1.5-2.6-1.1-3.7,1.5-5.1c5.2-2.7,10.2-5.6,15.3-8.6c2.1-1.2,3.2-1.3,4.6,1.1c18.2,32.4,36.6,64.8,55,97.1c1.3,2.3,1,3.4-1.3,4.6
			c-5.3,2.8-10.4,5.8-15.6,8.8C106.9,371.2,106.2,371.6,105.4,372z"/>
	</g>
</g>
<g>
	<path class="st2" d="M457.7,207.9c-7.2,0-13.4-1.3-18.7-3.9c-5.3-2.6-9.3-6.2-12.1-10.8c-2.8-4.6-4.2-9.9-4.2-16.1
		c0-6,1.1-11.6,3.2-16.8c2.1-5.2,5.1-9.7,9-13.5c3.9-3.8,8.5-6.8,13.8-8.9c5.4-2.2,11.3-3.2,17.9-3.2c6.3,0,11.9,1.1,16.8,3.2
		c4.8,2.2,8.5,5.2,10.9,9.2l-11.8,9.7c-1.8-2.6-4-4.7-6.9-6.1c-2.8-1.4-6.2-2.2-10.1-2.2c-4,0-7.6,0.7-10.8,2.1
		c-3.2,1.4-6,3.4-8.3,5.9c-2.3,2.5-4.1,5.5-5.3,8.8c-1.2,3.3-1.8,6.9-1.8,10.8c0,3.6,0.8,6.7,2.3,9.3c1.5,2.7,3.8,4.7,6.8,6.3
		c3,1.5,6.6,2.3,10.8,2.3c3.6,0,7-0.7,10.2-2c3.2-1.3,6-3.4,8.6-6.3l9.6,9.9c-3.6,4.3-8,7.4-13,9.3
		C469.4,207,463.8,207.9,457.7,207.9z"/>
	<path class="st2" d="M493.5,206.7l14.9-74.9h15.8l-14.9,74.9H493.5z"/>
	<path class="st2" d="M548.3,207.5c-4.1,0-7.9-1-11.5-2.9c-3.6-1.9-6.4-4.7-8.6-8.3c-2.2-3.6-3.3-8-3.3-13c0-4.6,0.8-8.9,2.3-12.7
		c1.5-3.8,3.7-7.2,6.5-10c2.8-2.8,6-5,9.6-6.6c3.6-1.6,7.5-2.4,11.7-2.4c4.5,0,8.4,0.8,11.6,2.5c3.2,1.7,5.6,4.3,7.2,7.8
		c1.6,3.5,2.2,8.1,1.8,13.7c-0.4,6.5-1.8,12.1-4,16.9c-2.3,4.8-5.4,8.5-9.2,11.1C558.4,206.2,553.7,207.5,548.3,207.5z M553.2,194.5
		c3.1,0,5.8-0.7,8.2-2.2c2.4-1.5,4.3-3.6,5.7-6.3c1.4-2.7,2.1-5.8,2.1-9.4c0-3.6-1.1-6.5-3.2-8.7c-2.2-2.2-5.2-3.3-9.2-3.3
		c-3,0-5.7,0.8-8.1,2.3c-2.4,1.5-4.3,3.6-5.7,6.3c-1.4,2.7-2.1,5.8-2.1,9.3c0,3.7,1.1,6.6,3.3,8.8
		C546.3,193.4,549.3,194.5,553.2,194.5z M564,206.7l2.1-10.8l3.5-16.2l2.1-16.2l2.2-11.2h15.6L579,206.7H564z"/>
	<path class="st2" d="M593.6,206.7l10.7-54.3h15l-3.1,15.4l-1.4-4.3c2.4-4.4,5.6-7.5,9.5-9.3c3.9-1.7,8.6-2.6,14-2.6l-2.8,14.6
		c-0.7-0.1-1.3-0.2-1.9-0.3c-0.6-0.1-1.2-0.1-1.8-0.1c-4.6,0-8.4,1.2-11.4,3.5c-2.9,2.4-4.9,6.1-5.9,11.2l-5.3,26.2H593.6z"/>
	<path class="st2" d="M636.7,206.7l10.7-54.3h15.9l-10.9,54.3H636.7z M658,144.8c-2.8,0-5-0.8-6.7-2.4c-1.7-1.6-2.5-3.5-2.5-5.8
		c0-2.6,1-4.8,2.9-6.7c1.9-1.8,4.4-2.7,7.5-2.7c2.8,0,5.1,0.7,6.7,2.2c1.6,1.5,2.5,3.4,2.5,5.7c0,2.9-0.9,5.2-2.8,7
		C663.7,143.9,661.2,144.8,658,144.8z"/>
	<path class="st2" d="M668.7,165.7l2.4-12.1h37.7l-2.4,12.1H668.7z M689.2,207.5c-3.9,0-7.2-0.8-10-2.4c-2.8-1.6-4.7-3.9-5.9-6.9
		c-1.2-3-1.4-6.6-0.6-10.8l9.5-47.2H698l-9.5,47.2c-0.4,2.3-0.2,4.1,0.7,5.5c0.9,1.3,2.5,2,4.7,2c1.1,0,2.3-0.2,3.3-0.5
		c1.1-0.3,2.1-0.8,3.1-1.4l2.3,11.2c-2,1.2-4.1,2.1-6.5,2.5C693.9,207.3,691.6,207.5,689.2,207.5z"/>
	<path class="st2" d="M733.9,207.5c-4.1,0-7.9-1-11.5-2.9c-3.6-1.9-6.4-4.7-8.6-8.3c-2.2-3.6-3.3-8-3.3-13c0-4.6,0.8-8.9,2.3-12.7
		c1.5-3.8,3.7-7.2,6.5-10c2.8-2.8,6-5,9.6-6.6c3.6-1.6,7.5-2.4,11.7-2.4c4.5,0,8.4,0.8,11.6,2.5c3.2,1.7,5.6,4.3,7.2,7.8
		c1.6,3.5,2.2,8.1,1.8,13.7c-0.4,6.5-1.8,12.1-4,16.9c-2.3,4.8-5.4,8.5-9.2,11.1C744,206.2,739.3,207.5,733.9,207.5z M738.8,194.5
		c3.1,0,5.8-0.7,8.2-2.2c2.4-1.5,4.3-3.6,5.7-6.3c1.4-2.7,2.1-5.8,2.1-9.4c0-3.6-1.1-6.5-3.2-8.7c-2.2-2.2-5.2-3.3-9.2-3.3
		c-3,0-5.7,0.8-8.1,2.3c-2.4,1.5-4.3,3.6-5.7,6.3c-1.4,2.7-2.1,5.8-2.1,9.3c0,3.7,1.1,6.6,3.3,8.8
		C731.8,193.4,734.9,194.5,738.8,194.5z M749.6,206.7l2.1-10.8l3.5-16.2l2.1-16.2l2.2-11.2h15.7l-10.7,54.3H749.6z"/>
	<path class="st2" d="M807.8,206.7l14.9-74.9h15.7l-14.9,74.9H807.8z"/>
	<path class="st2" d="M862.6,207.5c-4.1,0-7.9-1-11.5-2.9c-3.6-1.9-6.4-4.7-8.6-8.3c-2.2-3.6-3.3-8-3.3-13c0-4.6,0.8-8.9,2.3-12.7
		c1.5-3.8,3.7-7.2,6.5-10c2.8-2.8,6-5,9.6-6.6c3.6-1.6,7.5-2.4,11.7-2.4c4.5,0,8.4,0.8,11.6,2.5c3.2,1.7,5.6,4.3,7.2,7.8
		c1.6,3.5,2.2,8.1,1.8,13.7c-0.4,6.5-1.8,12.1-4,16.9c-2.3,4.8-5.4,8.5-9.2,11.1C872.7,206.2,868,207.5,862.6,207.5z M867.5,194.5
		c3.1,0,5.8-0.7,8.2-2.2c2.4-1.5,4.3-3.6,5.7-6.3c1.4-2.7,2.1-5.8,2.1-9.4c0-3.6-1.1-6.5-3.2-8.7c-2.2-2.2-5.2-3.3-9.2-3.3
		c-3,0-5.7,0.8-8.1,2.3c-2.4,1.5-4.3,3.6-5.7,6.3c-1.4,2.7-2.1,5.8-2.1,9.3c0,3.7,1.1,6.6,3.3,8.8
		C860.6,193.4,863.6,194.5,867.5,194.5z M878.3,206.7l2.1-10.8l3.5-16.2l2.1-16.2l2.2-11.2H904l-10.7,54.3H878.3z"/>
	<path class="st0" d="M508.4,329.1c-7.2,0-13.4-1.3-18.7-3.9c-5.3-2.6-9.3-6.2-12.1-10.8c-2.8-4.6-4.2-9.9-4.2-16.1
		c0-6,1.1-11.6,3.2-16.8c2.1-5.2,5.1-9.7,9-13.5c3.9-3.8,8.5-6.8,13.8-8.9c5.4-2.2,11.3-3.2,17.9-3.2c6.3,0,11.9,1.1,16.8,3.2
		c4.8,2.2,8.5,5.2,10.9,9.2l-11.8,9.7c-1.8-2.6-4-4.7-6.9-6.1c-2.8-1.4-6.2-2.2-10.1-2.2c-4,0-7.6,0.7-10.8,2.1
		c-3.2,1.4-6,3.4-8.3,5.9c-2.3,2.5-4.1,5.5-5.3,8.8s-1.8,6.9-1.8,10.8c0,3.6,0.8,6.7,2.3,9.3c1.5,2.7,3.8,4.7,6.8,6.3
		c3,1.5,6.6,2.3,10.8,2.3c3.6,0,7-0.7,10.2-2c3.2-1.3,6-3.4,8.6-6.3l9.6,9.9c-3.6,4.3-8,7.4-13,9.3
		C520.2,328.1,514.6,329.1,508.4,329.1z"/>
	<path class="st0" d="M566,328.7c-4.4,0-8.3-1-11.5-2.9c-3.2-1.9-5.5-4.7-6.9-8.4c-1.3-3.7-1.5-8.3-0.4-13.7l6-30.1H569l-5.9,29.1
		c-0.7,4-0.4,7,1,9.2c1.4,2.2,4,3.2,7.7,3.2c3.9,0,7.2-1.1,9.8-3.4c2.7-2.3,4.4-5.8,5.3-10.5l5.6-27.6h15.7l-10.8,54.3h-14.9l3-15.3
		l2.2,4.5c-2.6,4-5.8,7-9.6,8.8C574.4,327.7,570.3,328.7,566,328.7z"/>
	<path class="st0" d="M640.9,328.7c-5.6,0-10.5-1-14.6-3c-4.2-2-7.4-4.8-9.7-8.5c-2.3-3.6-3.4-7.9-3.4-12.8c0-6.1,1.4-11.5,4.1-16.2
		c2.7-4.7,6.5-8.5,11.3-11.3c4.8-2.8,10.3-4.1,16.6-4.1c5.3,0,9.9,1,13.8,3c3.9,2,6.9,4.8,9,8.3c2.1,3.6,3.2,7.8,3.2,12.6
		c0,1.4-0.1,2.8-0.3,4.2c-0.2,1.4-0.4,2.8-0.7,4h-44.9l1.7-9.2h35.8l-6.6,2.8c0.6-3,0.5-5.6-0.5-7.6c-0.9-2.1-2.3-3.6-4.2-4.7
		c-1.9-1.1-4.3-1.7-7-1.7c-3.4,0-6.3,0.8-8.7,2.5c-2.4,1.6-4.2,3.9-5.5,6.8c-1.2,2.9-1.9,6.2-1.9,9.9c0,4.1,1.2,7.2,3.5,9.2
		c2.3,2.1,5.9,3.1,10.7,3.1c2.8,0,5.4-0.4,8-1.3c2.6-0.9,4.7-2.1,6.6-3.6l6.6,10.3c-3.2,2.5-6.7,4.3-10.7,5.5
		C649,328.1,645,328.7,640.9,328.7z"/>
	<path class="st0" d="M717.9,272.7c4.6,0,8.5,1,11.7,2.9c3.2,1.9,5.5,4.7,6.9,8.4c1.3,3.7,1.5,8.3,0.4,13.7l-6.1,30.1h-15.7
		l5.8-29.1c0.9-4,0.6-7-0.9-9.2c-1.4-2.2-4.1-3.2-7.9-3.2c-4,0-7.4,1.1-10,3.4c-2.6,2.3-4.4,5.8-5.5,10.6l-5.5,27.5h-15.7l10.7-54.3
		h15l-3,15.3l-2.3-4.5c2.6-4,5.9-6.9,9.7-8.8C709.5,273.7,713.6,272.7,717.9,272.7z"/>
	<path class="st0" d="M746.7,286.9l2.4-12.1h37.7l-2.4,12.1H746.7z M767.2,328.7c-3.9,0-7.2-0.8-10-2.4c-2.8-1.6-4.7-3.9-5.9-6.9
		c-1.2-3-1.4-6.6-0.6-10.8l9.5-47.2H776l-9.5,47.2c-0.4,2.3-0.2,4.1,0.7,5.5c0.9,1.3,2.5,2,4.7,2c1.1,0,2.3-0.2,3.3-0.5
		c1.1-0.3,2.1-0.8,3.1-1.4l2.3,11.2c-2,1.2-4.1,2.1-6.5,2.5C771.9,328.4,769.6,328.7,767.2,328.7z"/>
	<path class="st0" d="M811.8,328.7c-4.1,0-7.9-1-11.5-2.9c-3.6-1.9-6.4-4.7-8.6-8.3c-2.2-3.6-3.3-8-3.3-13c0-4.6,0.8-8.9,2.3-12.7
		c1.5-3.8,3.7-7.2,6.5-10c2.8-2.8,6-5,9.6-6.6c3.6-1.6,7.5-2.4,11.7-2.4c4.5,0,8.4,0.8,11.6,2.5c3.2,1.7,5.6,4.3,7.2,7.8
		c1.6,3.5,2.2,8.1,1.8,13.7c-0.4,6.5-1.8,12.1-4,16.9c-2.3,4.8-5.4,8.5-9.2,11.1C822,327.4,817.3,328.7,811.8,328.7z M816.8,315.6
		c3.1,0,5.8-0.7,8.2-2.2c2.4-1.5,4.3-3.6,5.7-6.3c1.4-2.7,2.1-5.8,2.1-9.4c0-3.6-1.1-6.5-3.2-8.7c-2.2-2.2-5.2-3.3-9.2-3.3
		c-3,0-5.7,0.8-8.1,2.3c-2.4,1.5-4.3,3.6-5.7,6.3c-1.4,2.7-2.1,5.8-2.1,9.3c0,3.7,1.1,6.6,3.3,8.8
		C809.8,314.6,812.9,315.6,816.8,315.6z M827.6,327.9l2.1-10.8l3.5-16.2l2.1-16.2l2.2-11.2h15.7l-10.7,54.3H827.6z"/>
</g>
</svg>
